# xmcd
#
# Track frame offsets: 
#        150
#        10930
#        21197
#        32396
#        43638
#        54859
#        65516
#        73949
#        85677
#        97783
#        113318
#        124071
#        147278
#        157417
#        171067
#        184077
#        196469
#        207584
#        223101
#        234733
#        246126
#        259829
#        273174
#        283899
#        297298
#        307996
#        320059
#
# Disc length: 4436 seconds
#
# Revision: 0
# Processed by: cddbd v1.5.1PL2 Copyright (c) Steve Scherf et al.
# Submitted via: ExactAudioCopy v0.95b3
#
DISCID=8e11521b
DTITLE=Va  - Atlantic R&B series - Disc 4
DYEAR=1900
DGENRE=
TTITLE0=Various Artist - 01. The Coasters - Young Blood
TTITLE1=Various Artist - 02. The Bobbettes - Mr. Lee
TTITLE2=Various Artist - 03. Clyde McPhatter - Long Lonely Nights
TTITLE3=Various Artist - 04. Chuck Willis - Betty And Dupree
TTITLE4=Various Artist - 05. Chuck Willis - What Am I Livin' For-
TTITLE5=Various Artist - 06. Chuck Willis - Hang Up My Rock And Roll Shoes
TTITLE6=Various Artist - 07. The Coasters - Yakety Yak
TTITLE7=Various Artist - 08. Clyde McPhatter - A Lover's Question
TTITLE8=Various Artist - 09. LaVern Baker - I Cried A Tear
TTITLE9=Various Artist - 10. Ray Charles - The Right Time
TTITLE10=Various Artist - 11. Coasters - Charlie Brown
TTITLE11=Various Artist - 12. Ray Charles - What'd I Say (Parts 1 and 2)
TTITLE12=Various Artist - 13. Drifters - There Goes My Baby
TTITLE13=Various Artist - 14. Coasters - Along Came Jones
TTITLE14=Various Artist - 15. Ray Charles - Let The Good Times Roll
TTITLE15=Various Artist - 16. Coasters - Poison Ivy
TTITLE16=Various Artist - 17. Drifters - Dance With Me
TTITLE17=Various Artist - 18. Ray Charles - Just For A Thrill
TTITLE18=Various Artist - 19. Drifters - This Magic Moment
TTITLE19=Various Artist - 20. Drifters - Save The Last Dance For Me
TTITLE20=Various Artist - 21. Coasters - Shopping For Clothes
TTITLE21=Various Artist - 22. Ben E. King - Spanish Harlem
TTITLE22=Various Artist - 23. Ben E. King - Young Boy Blues
TTITLE23=Various Artist - 24. Ben E. King - Stand By Me
TTITLE24=Various Artist - 25. Carla Thomas - Gee Whiz
TTITLE25=Various Artist - 26. LaVern Baker - Saved
TTITLE26=Various Artist - 27. Solomon Burke - Just Out Of Reach
EXTD=
EXTT0=
EXTT1=
EXTT2=
EXTT3=
EXTT4=
EXTT5=
EXTT6=
EXTT7=
EXTT8=
EXTT9=
EXTT10=
EXTT11=
EXTT12=
EXTT13=
EXTT14=
EXTT15=
EXTT16=
EXTT17=
EXTT18=
EXTT19=
EXTT20=
EXTT21=
EXTT22=
EXTT23=
EXTT24=
EXTT25=
EXTT26=
PLAYORDER=
